<svg xmlns="http://www.w3.org/2000/svg" viewBox="0 0 190 68" width="190" height="68">
  <!-- ex block: Eucalyptus #7fa08a -->
  <rect x="0" y="0" width="120" height="68" rx="9" ry="9" fill="#7fa08a"/>

  <!-- f block: Slate Blue #8e99a8 -->
  <rect x="126" y="0" width="64" height="68" rx="9" ry="9" fill="#8e99a8"/>

  <!-- Letterforms: Jost ExtraLight (200), converted to paths -->
  <path d="M40.92 43.6Q43.56 43.6 45.52 42.48Q47.48 41.36 49.12 38.92L48.12 38.28Q46.68 40.44 45 41.44Q43.32 42.44 41.04 42.44Q38.92 42.44 37.3 41.34Q35.68 40.24 34.76 38.28Q33.88 36.52 33.8 34.28H49.36Q49.4 34.04 49.42 33.76Q49.44 33.48 49.44 33.28Q49.44 30.76 48.36 28.74Q47.28 26.72 45.42 25.56Q43.56 24.4 41.16 24.4Q38.68 24.4 36.74 25.62Q34.8 26.84 33.68 29Q32.56 31.16 32.56 33.96Q32.56 36.72 33.64 38.9Q34.72 41.08 36.62 42.34Q38.52 43.6 40.92 43.6ZM33.8 33.2Q33.92 31.16 34.76 29.52Q35.72 27.64 37.38 26.58Q39.04 25.52 41.16 25.52Q43.12 25.52 44.7 26.48Q46.28 27.44 47.2 29.12Q48.12 30.8 48.12 32.88Q48.12 33.04 48.12 33.2Z" fill="#ffffff"/>
  <path d="M84.68 24.8 79 32.76 73.32 24.8H71.84L78.28 33.72L71.44 43.2H72.92L79 34.68L85.08 43.2H86.56L79.68 33.72L86.12 24.8Z" fill="#ffffff"/>
  <path d="M153.08 31.38V32.54H154.88V49.78H156.12V32.54H161.28V31.38H156.12V24.14Q156.12 22.94 156.4 21.88Q156.68 20.82 157.4 20.14Q158.12 19.46 159.44 19.46Q160.36 19.46 161.06 19.94Q161.76 20.42 162.2 21.02L162.92 20.06Q162.64 19.66 162.16 19.24Q161.68 18.82 161.02 18.52Q160.36 18.22 159.48 18.22Q157.8 18.22 156.8 19Q155.8 19.78 155.34 21.08Q154.88 22.38 154.88 24.02V31.38Z" fill="#ffffff"/>
</svg>