<svg id="my-svg" width="100%" xmlns="http://www.w3.org/2000/svg" xmlns:xlink="http://www.w3.org/1999/xlink" class="flowchart" style="max-width: 1214.25px; background-color: transparent;" viewBox="0 0 1214.25 2072" role="graphics-document document" aria-roledescription="flowchart-v2"><style>#my-svg{font-family:"trebuchet ms",verdana,arial,sans-serif;font-size:16px;fill:#333;}@keyframes edge-animation-frame{from{stroke-dashoffset:0;}}@keyframes dash{to{stroke-dashoffset:0;}}#my-svg .edge-animation-slow{stroke-dasharray:9,5!important;stroke-dashoffset:900;animation:dash 50s linear infinite;stroke-linecap:round;}#my-svg .edge-animation-fast{stroke-dasharray:9,5!important;stroke-dashoffset:900;animation:dash 20s linear infinite;stroke-linecap:round;}#my-svg .error-icon{fill:#552222;}#my-svg .error-text{fill:#552222;stroke:#552222;}#my-svg .edge-thickness-normal{stroke-width:1px;}#my-svg .edge-thickness-thick{stroke-width:3.5px;}#my-svg .edge-pattern-solid{stroke-dasharray:0;}#my-svg .edge-thickness-invisible{stroke-width:0;fill:none;}#my-svg .edge-pattern-dashed{stroke-dasharray:3;}#my-svg .edge-pattern-dotted{stroke-dasharray:2;}#my-svg .marker{fill:#333333;stroke:#333333;}#my-svg .marker.cross{stroke:#333333;}#my-svg svg{font-family:"trebuchet ms",verdana,arial,sans-serif;font-size:16px;}#my-svg p{margin:0;}#my-svg .label{font-family:"trebuchet ms",verdana,arial,sans-serif;color:#333;}#my-svg .cluster-label text{fill:#333;}#my-svg .cluster-label span{color:#333;}#my-svg .cluster-label span p{background-color:transparent;}#my-svg .label text,#my-svg span{fill:#333;color:#333;}#my-svg .node rect,#my-svg .node circle,#my-svg .node ellipse,#my-svg .node polygon,#my-svg .node path{fill:#ECECFF;stroke:#9370DB;stroke-width:1px;}#my-svg .rough-node .label text,#my-svg .node .label text,#my-svg .image-shape .label,#my-svg .icon-shape .label{text-anchor:middle;}#my-svg .node .katex path{fill:#000;stroke:#000;stroke-width:1px;}#my-svg .rough-node .label,#my-svg .node .label,#my-svg .image-shape .label,#my-svg .icon-shape .label{text-align:center;}#my-svg .node.clickable{cursor:pointer;}#my-svg .root .anchor path{fill:#333333!important;stroke-width:0;stroke:#333333;}#my-svg .arrowheadPath{fill:#333333;}#my-svg .edgePath .path{stroke:#333333;stroke-width:2.0px;}#my-svg .flowchart-link{stroke:#333333;fill:none;}#my-svg .edgeLabel{background-color:rgba(232,232,232, 0.8);text-align:center;}#my-svg .edgeLabel p{background-color:rgba(232,232,232, 0.8);}#my-svg .edgeLabel rect{opacity:0.5;background-color:rgba(232,232,232, 0.8);fill:rgba(232,232,232, 0.8);}#my-svg .labelBkg{background-color:rgba(232, 232, 232, 0.5);}#my-svg .cluster rect{fill:#ffffde;stroke:#aaaa33;stroke-width:1px;}#my-svg .cluster text{fill:#333;}#my-svg .cluster span{color:#333;}#my-svg div.mermaidTooltip{position:absolute;text-align:center;max-width:200px;padding:2px;font-family:"trebuchet ms",verdana,arial,sans-serif;font-size:12px;background:hsl(80, 100%, 96.2745098039%);border:1px solid #aaaa33;border-radius:2px;pointer-events:none;z-index:100;}#my-svg .flowchartTitleText{text-anchor:middle;font-size:18px;fill:#333;}#my-svg rect.text{fill:none;stroke-width:0;}#my-svg .icon-shape,#my-svg .image-shape{background-color:rgba(232,232,232, 0.8);text-align:center;}#my-svg .icon-shape p,#my-svg .image-shape p{background-color:rgba(232,232,232, 0.8);padding:2px;}#my-svg .icon-shape rect,#my-svg .image-shape rect{opacity:0.5;background-color:rgba(232,232,232, 0.8);fill:rgba(232,232,232, 0.8);}#my-svg .label-icon{display:inline-block;height:1em;overflow:visible;vertical-align:-0.125em;}#my-svg .node .label-icon path{fill:currentColor;stroke:revert;stroke-width:revert;}#my-svg :root{--mermaid-font-family:"trebuchet ms",verdana,arial,sans-serif;}</style><g><marker id="my-svg_flowchart-v2-pointEnd" class="marker flowchart-v2" viewBox="0 0 10 10" refX="5" refY="5" markerUnits="userSpaceOnUse" markerWidth="8" markerHeight="8" orient="auto"><path d="M 0 0 L 10 5 L 0 10 z" class="arrowMarkerPath" style="stroke-width: 1; stroke-dasharray: 1, 0;"/></marker><marker id="my-svg_flowchart-v2-pointStart" class="marker flowchart-v2" viewBox="0 0 10 10" refX="4.5" refY="5" markerUnits="userSpaceOnUse" markerWidth="8" markerHeight="8" orient="auto"><path d="M 0 5 L 10 10 L 10 0 z" class="arrowMarkerPath" style="stroke-width: 1; stroke-dasharray: 1, 0;"/></marker><marker id="my-svg_flowchart-v2-circleEnd" class="marker flowchart-v2" viewBox="0 0 10 10" refX="11" refY="5" markerUnits="userSpaceOnUse" markerWidth="11" markerHeight="11" orient="auto"><circle cx="5" cy="5" r="5" class="arrowMarkerPath" style="stroke-width: 1; stroke-dasharray: 1, 0;"/></marker><marker id="my-svg_flowchart-v2-circleStart" class="marker flowchart-v2" viewBox="0 0 10 10" refX="-1" refY="5" markerUnits="userSpaceOnUse" markerWidth="11" markerHeight="11" orient="auto"><circle cx="5" cy="5" r="5" class="arrowMarkerPath" style="stroke-width: 1; stroke-dasharray: 1, 0;"/></marker><marker id="my-svg_flowchart-v2-crossEnd" class="marker cross flowchart-v2" viewBox="0 0 11 11" refX="12" refY="5.2" markerUnits="userSpaceOnUse" markerWidth="11" markerHeight="11" orient="auto"><path d="M 1,1 l 9,9 M 10,1 l -9,9" class="arrowMarkerPath" style="stroke-width: 2; stroke-dasharray: 1, 0;"/></marker><marker id="my-svg_flowchart-v2-crossStart" class="marker cross flowchart-v2" viewBox="0 0 11 11" refX="-1" refY="5.2" markerUnits="userSpaceOnUse" markerWidth="11" markerHeight="11" orient="auto"><path d="M 1,1 l 9,9 M 10,1 l -9,9" class="arrowMarkerPath" style="stroke-width: 2; stroke-dasharray: 1, 0;"/></marker><g class="root"><g class="clusters"><g class="cluster" id="LOOP" data-look="classic"><rect style="" x="171.9765625" y="1582" width="896.32421875" height="304"/><g class="cluster-label" transform="translate(546.935546875, 1582)"><g><rect class="background" style="stroke: none"/><text y="-10.1" style=""><tspan class="text-outer-tspan" x="0" y="-0.1em" dy="1.1em"><tspan font-style="normal" class="text-inner-tspan" font-weight="normal">Execution</tspan><tspan font-style="normal" class="text-inner-tspan" font-weight="normal"> +</tspan><tspan font-style="normal" class="text-inner-tspan" font-weight="normal"> learning</tspan></tspan></text></g></g></g><g class="cluster" id="OUTI" data-look="classic"><rect style="" x="8" y="1936" width="1198.25" height="128"/><g class="cluster-label" transform="translate(549.4609375, 1936)"><g><rect class="background" style="stroke: none"/><text y="-10.1" style=""><tspan class="text-outer-tspan" x="0" y="-0.1em" dy="1.1em"><tspan font-style="normal" class="text-inner-tspan" font-weight="normal">Internal</tspan><tspan font-style="normal" class="text-inner-tspan" font-weight="normal"> outputs</tspan></tspan></text></g></g></g><g class="cluster" id="OUTU" data-look="classic"><rect style="" x="238.40234375" y="1428" width="822.765625" height="104"/><g class="cluster-label" transform="translate(604.40234375, 1428)"><g><rect class="background" style="stroke: none"/><text y="-10.1" style=""><tspan class="text-outer-tspan" x="0" y="-0.1em" dy="1.1em"><tspan font-style="normal" class="text-inner-tspan" font-weight="normal">User</tspan><tspan font-style="normal" class="text-inner-tspan" font-weight="normal"> outputs</tspan></tspan></text></g></g></g><g class="cluster" id="PIPE" data-look="classic"><rect style="" x="67.15625" y="186" width="1029.16796875" height="1192"/><g class="cluster-label" transform="translate(519.958984375, 186)"><g><rect class="background" style="stroke: none"/><text y="-10.1" style=""><tspan class="text-outer-tspan" x="0" y="-0.1em" dy="1.1em"><tspan font-style="normal" class="text-inner-tspan" font-weight="normal">Planning</tspan><tspan font-style="normal" class="text-inner-tspan" font-weight="normal"> pipeline</tspan></tspan></text></g></g></g><g class="cluster" id="IN" data-look="classic"><rect style="" x="245.08203125" y="8" width="863.734375" height="128"/><g class="cluster-label" transform="translate(655.11328125, 8)"><g><rect class="background" style="stroke: none"/><text y="-10.1" style=""><tspan class="text-outer-tspan" x="0" y="-0.1em" dy="1.1em"><tspan font-style="normal" class="text-inner-tspan" font-weight="normal">Inputs</tspan></tspan></text></g></g></g></g><g class="edgePaths"><path d="M396.973,111L396.973,115.167C396.973,119.333,396.973,127.667,396.973,136C396.973,144.333,396.973,152.667,396.973,161C396.973,169.333,396.973,177.667,407.69,185.77C418.407,193.874,439.842,201.747,450.559,205.684L461.277,209.621" id="L_U_CTX_0" class="edge-thickness-normal edge-pattern-solid edge-thickness-normal edge-pattern-solid flowchart-link" style=";" data-edge="true" data-et="edge" data-id="L_U_CTX_0" data-points="W3sieCI6Mzk2Ljk3MjY1NjI1LCJ5IjoxMTF9LHsieCI6Mzk2Ljk3MjY1NjI1LCJ5IjoxMzZ9LHsieCI6Mzk2Ljk3MjY1NjI1LCJ5IjoxNjF9LHsieCI6Mzk2Ljk3MjY1NjI1LCJ5IjoxODZ9LHsieCI6NDY1LjAzMTU1MDQ4MDc2OTIsInkiOjIxMX1d" marker-end="url(#my-svg_flowchart-v2-pointEnd)"/><path d="M680.098,111L680.098,115.167C680.098,119.333,680.098,127.667,680.098,136C680.098,144.333,680.098,152.667,680.098,161C680.098,169.333,680.098,177.667,669.38,185.77C658.663,193.874,637.228,201.747,626.511,205.684L615.793,209.621" id="L_P_CTX_0" class="edge-thickness-normal edge-pattern-solid edge-thickness-normal edge-pattern-solid flowchart-link" style=";" data-edge="true" data-et="edge" data-id="L_P_CTX_0" data-points="W3sieCI6NjgwLjA5NzY1NjI1LCJ5IjoxMTF9LHsieCI6NjgwLjA5NzY1NjI1LCJ5IjoxMzZ9LHsieCI6NjgwLjA5NzY1NjI1LCJ5IjoxNjF9LHsieCI6NjgwLjA5NzY1NjI1LCJ5IjoxODZ9LHsieCI6NjEyLjAzODc2MjAxOTIzMDcsInkiOjIxMX1d" marker-end="url(#my-svg_flowchart-v2-pointEnd)"/><path d="M960.074,99L960.074,105.167C960.074,111.333,960.074,123.667,960.074,134C960.074,144.333,960.074,152.667,960.074,161C960.074,169.333,960.074,177.667,905.214,188.601C850.353,199.535,740.632,213.07,685.772,219.837L630.911,226.605" id="L_C_CTX_0" class="edge-thickness-normal edge-pattern-solid edge-thickness-normal edge-pattern-solid flowchart-link" style=";" data-edge="true" data-et="edge" data-id="L_C_CTX_0" data-points="W3sieCI6OTYwLjA3NDIxODc1LCJ5Ijo5OX0seyJ4Ijo5NjAuMDc0MjE4NzUsInkiOjEzNn0seyJ4Ijo5NjAuMDc0MjE4NzUsInkiOjE2MX0seyJ4Ijo5NjAuMDc0MjE4NzUsInkiOjE4Nn0seyJ4Ijo2MjYuOTQxNDA2MjUsInkiOjIyNy4wOTQ0MjcwNDM3NTcwN31d" marker-end="url(#my-svg_flowchart-v2-pointEnd)"/><path d="M538.535,265L538.535,269.167C538.535,273.333,538.535,281.667,538.535,289.333C538.535,297,538.535,304,538.535,307.5L538.535,311" id="L_CTX_CAD_0" class="edge-thickness-normal edge-pattern-solid edge-thickness-normal edge-pattern-solid flowchart-link" style=";" data-edge="true" data-et="edge" data-id="L_CTX_CAD_0" data-points="W3sieCI6NTM4LjUzNTE1NjI1LCJ5IjoyNjV9LHsieCI6NTM4LjUzNTE1NjI1LCJ5IjoyOTB9LHsieCI6NTM4LjUzNTE1NjI1LCJ5IjozMTV9XQ==" marker-end="url(#my-svg_flowchart-v2-pointEnd)"/><path d="M538.535,393L538.535,397.167C538.535,401.333,538.535,409.667,538.535,417.333C538.535,425,538.535,432,538.535,435.5L538.535,439" id="L_CAD_RT_0" class="edge-thickness-normal edge-pattern-solid edge-thickness-normal edge-pattern-solid flowchart-link" style=";" data-edge="true" data-et="edge" data-id="L_CAD_RT_0" data-points="W3sieCI6NTM4LjUzNTE1NjI1LCJ5IjozOTN9LHsieCI6NTM4LjUzNTE1NjI1LCJ5Ijo0MTh9LHsieCI6NTM4LjUzNTE1NjI1LCJ5Ijo0NDN9XQ==" marker-end="url(#my-svg_flowchart-v2-pointEnd)"/><path d="M538.535,545L538.535,549.167C538.535,553.333,538.535,561.667,538.535,569.333C538.535,577,538.535,584,538.535,587.5L538.535,591" id="L_RT_DF_0" class="edge-thickness-normal edge-pattern-solid edge-thickness-normal edge-pattern-solid flowchart-link" style=";" data-edge="true" data-et="edge" data-id="L_RT_DF_0" data-points="W3sieCI6NTM4LjUzNTE1NjI1LCJ5Ijo1NDV9LHsieCI6NTM4LjUzNTE1NjI1LCJ5Ijo1NzB9LHsieCI6NTM4LjUzNTE1NjI1LCJ5Ijo1OTV9XQ==" marker-end="url(#my-svg_flowchart-v2-pointEnd)"/><path d="M538.535,745L538.535,749.167C538.535,753.333,538.535,761.667,538.535,769.333C538.535,777,538.535,784,538.535,787.5L538.535,791" id="L_DF_MD_0" class="edge-thickness-normal edge-pattern-solid edge-thickness-normal edge-pattern-solid flowchart-link" style=";" data-edge="true" data-et="edge" data-id="L_DF_MD_0" data-points="W3sieCI6NTM4LjUzNTE1NjI1LCJ5Ijo3NDV9LHsieCI6NTM4LjUzNTE1NjI1LCJ5Ijo3NzB9LHsieCI6NTM4LjUzNTE1NjI1LCJ5Ijo3OTV9XQ==" marker-end="url(#my-svg_flowchart-v2-pointEnd)"/><path d="M538.535,873L538.535,877.167C538.535,881.333,538.535,889.667,538.535,897.333C538.535,905,538.535,912,538.535,915.5L538.535,919" id="L_MD_SLOTS_0" class="edge-thickness-normal edge-pattern-solid edge-thickness-normal edge-pattern-solid flowchart-link" style=";" data-edge="true" data-et="edge" data-id="L_MD_SLOTS_0" data-points="W3sieCI6NTM4LjUzNTE1NjI1LCJ5Ijo4NzN9LHsieCI6NTM4LjUzNTE1NjI1LCJ5Ijo4OTh9LHsieCI6NTM4LjUzNTE1NjI1LCJ5Ijo5MjN9XQ==" marker-end="url(#my-svg_flowchart-v2-pointEnd)"/><path d="M538.535,1025L538.535,1029.167C538.535,1033.333,538.535,1041.667,538.535,1049.333C538.535,1057,538.535,1064,538.535,1067.5L538.535,1071" id="L_SLOTS_SCH_0" class="edge-thickness-normal edge-pattern-solid edge-thickness-normal edge-pattern-solid flowchart-link" style=";" data-edge="true" data-et="edge" data-id="L_SLOTS_SCH_0" data-points="W3sieCI6NTM4LjUzNTE1NjI1LCJ5IjoxMDI1fSx7IngiOjUzOC41MzUxNTYyNSwieSI6MTA1MH0seyJ4Ijo1MzguNTM1MTU2MjUsInkiOjEwNzV9XQ==" marker-end="url(#my-svg_flowchart-v2-pointEnd)"/><path d="M538.535,1225L538.535,1229.167C538.535,1233.333,538.535,1241.667,538.535,1249.333C538.535,1257,538.535,1264,538.535,1267.5L538.535,1271" id="L_SCH_PLAN_0" class="edge-thickness-normal edge-pattern-solid edge-thickness-normal edge-pattern-solid flowchart-link" style=";" data-edge="true" data-et="edge" data-id="L_SCH_PLAN_0" data-points="W3sieCI6NTM4LjUzNTE1NjI1LCJ5IjoxMjI1fSx7IngiOjUzOC41MzUxNTYyNSwieSI6MTI1MH0seyJ4Ijo1MzguNTM1MTU2MjUsInkiOjEyNzV9XQ==" marker-end="url(#my-svg_flowchart-v2-pointEnd)"/><path d="M443.93,1353L433.822,1357.167C423.715,1361.333,403.5,1369.667,393.393,1378C383.285,1386.333,383.285,1394.667,383.285,1403C383.285,1411.333,383.285,1419.667,383.285,1427.333C383.285,1435,383.285,1442,383.285,1445.5L383.285,1449" id="L_PLAN_UPLAN_0" class="edge-thickness-normal edge-pattern-solid edge-thickness-normal edge-pattern-solid flowchart-link" style=";" data-edge="true" data-et="edge" data-id="L_PLAN_UPLAN_0" data-points="W3sieCI6NDQzLjkyOTY4NzUsInkiOjEzNTN9LHsieCI6MzgzLjI4NTE1NjI1LCJ5IjoxMzc4fSx7IngiOjM4My4yODUxNTYyNSwieSI6MTQwM30seyJ4IjozODMuMjg1MTU2MjUsInkiOjE0Mjh9LHsieCI6MzgzLjI4NTE1NjI1LCJ5IjoxNDUzfV0=" marker-end="url(#my-svg_flowchart-v2-pointEnd)"/><path d="M612.422,1353L620.316,1357.167C628.21,1361.333,643.997,1369.667,651.891,1378C659.785,1386.333,659.785,1394.667,659.785,1403C659.785,1411.333,659.785,1419.667,659.785,1427.333C659.785,1435,659.785,1442,659.785,1445.5L659.785,1449" id="L_PLAN_URATIONALE_0" class="edge-thickness-normal edge-pattern-solid edge-thickness-normal edge-pattern-solid flowchart-link" style=";" data-edge="true" data-et="edge" data-id="L_PLAN_URATIONALE_0" data-points="W3sieCI6NjEyLjQyMTg3NSwieSI6MTM1M30seyJ4Ijo2NTkuNzg1MTU2MjUsInkiOjEzNzh9LHsieCI6NjU5Ljc4NTE1NjI1LCJ5IjoxNDAzfSx7IngiOjY1OS43ODUxNTYyNSwieSI6MTQyOH0seyJ4Ijo2NTkuNzg1MTU2MjUsInkiOjE0NTN9XQ==" marker-end="url(#my-svg_flowchart-v2-pointEnd)"/><path d="M703.035,1341.152L740.243,1347.293C777.452,1353.434,851.868,1365.717,889.077,1376.025C926.285,1386.333,926.285,1394.667,926.285,1403C926.285,1411.333,926.285,1419.667,926.285,1427.333C926.285,1435,926.285,1442,926.285,1445.5L926.285,1449" id="L_PLAN_UNEXT_0" class="edge-thickness-normal edge-pattern-solid edge-thickness-normal edge-pattern-solid flowchart-link" style=";" data-edge="true" data-et="edge" data-id="L_PLAN_UNEXT_0" data-points="W3sieCI6NzAzLjAzNTE1NjI1LCJ5IjoxMzQxLjE1MTUxNTE1MTUxNTJ9LHsieCI6OTI2LjI4NTE1NjI1LCJ5IjoxMzc4fSx7IngiOjkyNi4yODUxNTYyNSwieSI6MTQwM30seyJ4Ijo5MjYuMjg1MTU2MjUsInkiOjE0Mjh9LHsieCI6OTI2LjI4NTE1NjI1LCJ5IjoxNDUzfV0=" marker-end="url(#my-svg_flowchart-v2-pointEnd)"/><path d="M374.035,1338.405L329.555,1345.005C285.076,1351.604,196.116,1364.802,151.636,1375.568C107.156,1386.333,107.156,1394.667,107.156,1403C107.156,1411.333,107.156,1419.667,107.156,1432.5C107.156,1445.333,107.156,1462.667,107.156,1480C107.156,1497.333,107.156,1514.667,107.156,1527.5C107.156,1540.333,107.156,1548.667,107.156,1557C107.156,1565.333,107.156,1573.667,107.156,1588.5C107.156,1603.333,107.156,1624.667,107.156,1646C107.156,1667.333,107.156,1688.667,107.156,1714C107.156,1739.333,107.156,1768.667,107.156,1798C107.156,1827.333,107.156,1856.667,107.156,1875.5C107.156,1894.333,107.156,1902.667,107.156,1911C107.156,1919.333,107.156,1927.667,108.826,1935.396C110.497,1943.126,113.837,1950.252,115.507,1953.815L117.177,1957.378" id="L_PLAN_EV_0" class="edge-thickness-normal edge-pattern-solid edge-thickness-normal edge-pattern-solid flowchart-link" style=";" data-edge="true" data-et="edge" data-id="L_PLAN_EV_0" data-points="W3sieCI6Mzc0LjAzNTE1NjI1LCJ5IjoxMzM4LjQwNTQ1ODUxMzMwNjd9LHsieCI6MTA3LjE1NjI1LCJ5IjoxMzc4fSx7IngiOjEwNy4xNTYyNSwieSI6MTQwM30seyJ4IjoxMDcuMTU2MjUsInkiOjE0Mjh9LHsieCI6MTA3LjE1NjI1LCJ5IjoxNDgwfSx7IngiOjEwNy4xNTYyNSwieSI6MTUzMn0seyJ4IjoxMDcuMTU2MjUsInkiOjE1NTd9LHsieCI6MTA3LjE1NjI1LCJ5IjoxNTgyfSx7IngiOjEwNy4xNTYyNSwieSI6MTY0Nn0seyJ4IjoxMDcuMTU2MjUsInkiOjE3MTB9LHsieCI6MTA3LjE1NjI1LCJ5IjoxNzk4fSx7IngiOjEwNy4xNTYyNSwieSI6MTg4Nn0seyJ4IjoxMDcuMTU2MjUsInkiOjE5MTF9LHsieCI6MTA3LjE1NjI1LCJ5IjoxOTM2fSx7IngiOjExOC44NzUsInkiOjE5NjF9XQ==" marker-end="url(#my-svg_flowchart-v2-pointEnd)"/><path d="M554.593,1685L547.5,1689.167C540.408,1693.333,526.224,1701.667,519.131,1720.5C512.039,1739.333,512.039,1768.667,512.039,1798C512.039,1827.333,512.039,1856.667,512.039,1875.5C512.039,1894.333,512.039,1902.667,512.039,1911C512.039,1919.333,512.039,1927.667,512.039,1935.333C512.039,1943,512.039,1950,512.039,1953.5L512.039,1957" id="L_EXE_WL_0" class="edge-thickness-normal edge-pattern-solid edge-thickness-normal edge-pattern-solid flowchart-link" style=";" data-edge="true" data-et="edge" data-id="L_EXE_WL_0" data-points="W3sieCI6NTU0LjU5Mjc3MzQzNzUsInkiOjE2ODV9LHsieCI6NTEyLjAzOTA2MjUsInkiOjE3MTB9LHsieCI6NTEyLjAzOTA2MjUsInkiOjE3OTh9LHsieCI6NTEyLjAzOTA2MjUsInkiOjE4ODZ9LHsieCI6NTEyLjAzOTA2MjUsInkiOjE5MTF9LHsieCI6NTEyLjAzOTA2MjUsInkiOjE5MzZ9LHsieCI6NTEyLjAzOTA2MjUsInkiOjE5NjF9XQ==" marker-end="url(#my-svg_flowchart-v2-pointEnd)"/><path d="M895.695,1836.561L920.007,1844.801C944.318,1853.041,992.94,1869.52,1017.251,1881.927C1041.563,1894.333,1041.563,1902.667,1041.563,1911C1041.563,1919.333,1041.563,1927.667,1041.563,1935.333C1041.563,1943,1041.563,1950,1041.563,1953.5L1041.563,1957" id="L_LEARN_PAT_0" class="edge-thickness-normal edge-pattern-solid edge-thickness-normal edge-pattern-solid flowchart-link" style=";" data-edge="true" data-et="edge" data-id="L_LEARN_PAT_0" data-points="W3sieCI6ODk1LjY5NTMxMjUsInkiOjE4MzYuNTYxMjMyNDcyNzY4OH0seyJ4IjoxMDQxLjU2MjUsInkiOjE4ODZ9LHsieCI6MTA0MS41NjI1LCJ5IjoxOTExfSx7IngiOjEwNDEuNTYyNSwieSI6MTkzNn0seyJ4IjoxMDQxLjU2MjUsInkiOjE5NjF9XQ==" marker-end="url(#my-svg_flowchart-v2-pointEnd)"/><path d="M770.747,1861L770.008,1865.167C769.269,1869.333,767.791,1877.667,767.052,1886C766.313,1894.333,766.313,1902.667,766.313,1911C766.313,1919.333,766.313,1927.667,766.313,1935.333C766.313,1943,766.313,1950,766.313,1953.5L766.313,1957" id="L_LEARN_CALI_0" class="edge-thickness-normal edge-pattern-solid edge-thickness-normal edge-pattern-solid flowchart-link" style=";" data-edge="true" data-et="edge" data-id="L_LEARN_CALI_0" data-points="W3sieCI6NzcwLjc0Njk4MTUzNDA5MDksInkiOjE4NjF9LHsieCI6NzY2LjMxMjUsInkiOjE4ODZ9LHsieCI6NzY2LjMxMjUsInkiOjE5MTF9LHsieCI6NzY2LjMxMjUsInkiOjE5MzZ9LHsieCI6NzY2LjMxMjUsInkiOjE5NjF9XQ==" marker-end="url(#my-svg_flowchart-v2-pointEnd)"/><path d="M512.75,1664.354L467.89,1671.962C423.03,1679.569,333.31,1694.785,288.45,1717.059C243.59,1739.333,243.59,1768.667,243.59,1798C243.59,1827.333,243.59,1856.667,243.59,1875.5C243.59,1894.333,243.59,1902.667,243.59,1911C243.59,1919.333,243.59,1927.667,237.232,1935.656C230.874,1943.646,218.158,1951.292,211.8,1955.116L205.442,1958.939" id="L_EXE_EV_0" class="edge-thickness-normal edge-pattern-solid edge-thickness-normal edge-pattern-solid flowchart-link" style=";" data-edge="true" data-et="edge" data-id="L_EXE_EV_0" data-points="W3sieCI6NTEyLjc1LCJ5IjoxNjY0LjM1Mzg1MjA0NTgzMzN9LHsieCI6MjQzLjU4OTg0Mzc1LCJ5IjoxNzEwfSx7IngiOjI0My41ODk4NDM3NSwieSI6MTc5OH0seyJ4IjoyNDMuNTg5ODQzNzUsInkiOjE4ODZ9LHsieCI6MjQzLjU4OTg0Mzc1LCJ5IjoxOTExfSx7IngiOjI0My41ODk4NDM3NSwieSI6MTkzNn0seyJ4IjoyMDIuMDE0MjIxMTkxNDA2MjUsInkiOjE5NjF9XQ==" marker-end="url(#my-svg_flowchart-v2-pointEnd)"/><path d="M668.148,1817.316L600.722,1828.763C533.296,1840.211,398.443,1863.105,331.016,1878.719C263.59,1894.333,263.59,1902.667,263.59,1911C263.59,1919.333,263.59,1927.667,255.953,1935.699C248.317,1943.731,233.044,1951.462,225.407,1955.328L217.771,1959.193" id="L_LEARN_EV_0" class="edge-thickness-normal edge-pattern-solid edge-thickness-normal edge-pattern-solid flowchart-link" style=";" data-edge="true" data-et="edge" data-id="L_LEARN_EV_0" data-points="W3sieCI6NjY4LjE0ODQzNzUsInkiOjE4MTcuMzE1OTI0NzI4NTA4N30seyJ4IjoyNjMuNTg5ODQzNzUsInkiOjE4ODZ9LHsieCI6MjYzLjU4OTg0Mzc1LCJ5IjoxOTExfSx7IngiOjI2My41ODk4NDM3NSwieSI6MTkzNn0seyJ4IjoyMTQuMjAxNzIxMTkxNDA2MjUsInkiOjE5NjF9XQ==" marker-end="url(#my-svg_flowchart-v2-pointEnd)"/><path d="M383.285,1507L383.285,1511.167C383.285,1515.333,383.285,1523.667,383.285,1532C383.285,1540.333,383.285,1548.667,383.285,1557C383.285,1565.333,383.285,1573.667,404.219,1583.47C425.153,1593.273,467.02,1604.546,487.954,1610.183L508.888,1615.819" id="L_UPLAN_EXE_0" class="edge-thickness-normal edge-pattern-solid edge-thickness-normal edge-pattern-solid flowchart-link" style=";" data-edge="true" data-et="edge" data-id="L_UPLAN_EXE_0" data-points="W3sieCI6MzgzLjI4NTE1NjI1LCJ5IjoxNTA3fSx7IngiOjM4My4yODUxNTYyNSwieSI6MTUzMn0seyJ4IjozODMuMjg1MTU2MjUsInkiOjE1NTd9LHsieCI6MzgzLjI4NTE1NjI1LCJ5IjoxNTgyfSx7IngiOjUxMi43NSwieSI6MTYxNi44NTkyNzQ1OTc3NzQ5fV0=" marker-end="url(#my-svg_flowchart-v2-pointEnd)"/><path d="M926.285,1507L926.285,1511.167C926.285,1515.333,926.285,1523.667,926.285,1532C926.285,1540.333,926.285,1548.667,926.285,1557C926.285,1565.333,926.285,1573.667,894.091,1584.582C861.896,1595.497,797.507,1608.995,765.313,1615.744L733.118,1622.492" id="L_UNEXT_EXE_0" class="edge-thickness-normal edge-pattern-solid edge-thickness-normal edge-pattern-solid flowchart-link" style=";" data-edge="true" data-et="edge" data-id="L_UNEXT_EXE_0" data-points="W3sieCI6OTI2LjI4NTE1NjI1LCJ5IjoxNTA3fSx7IngiOjkyNi4yODUxNTYyNSwieSI6MTUzMn0seyJ4Ijo5MjYuMjg1MTU2MjUsInkiOjE1NTd9LHsieCI6OTI2LjI4NTE1NjI1LCJ5IjoxNTgyfSx7IngiOjcyOS4yMDMxMjUsInkiOjE2MjMuMzEzMTE4MTMwOTg5M31d" marker-end="url(#my-svg_flowchart-v2-pointEnd)"/><path d="M719.053,1685L729.531,1689.167C740.009,1693.333,760.965,1701.667,771.444,1709.333C781.922,1717,781.922,1724,781.922,1727.5L781.922,1731" id="L_EXE_LEARN_0" class="edge-thickness-normal edge-pattern-solid edge-thickness-normal edge-pattern-solid flowchart-link" style=";" data-edge="true" data-et="edge" data-id="L_EXE_LEARN_0" data-points="W3sieCI6NzE5LjA1MjYxMjMwNDY4NzUsInkiOjE2ODV9LHsieCI6NzgxLjkyMTg3NSwieSI6MTcxMH0seyJ4Ijo3ODEuOTIxODc1LCJ5IjoxNzM1fV0=" marker-end="url(#my-svg_flowchart-v2-pointEnd)"/></g><g class="edgeLabels"><g><rect class="background" style="stroke: none"/></g><g><rect class="background" style="stroke: none"/></g><g><rect class="background" style="stroke: none"/></g><g><rect class="background" style="stroke: none"/></g><g><rect class="background" style="stroke: none"/></g><g><rect class="background" style="stroke: none"/></g><g><rect class="background" style="stroke: none"/></g><g><rect class="background" style="stroke: none"/></g><g><rect class="background" style="stroke: none"/></g><g><rect class="background" style="stroke: none"/></g><g><rect class="background" style="stroke: none"/></g><g><rect class="background" style="stroke: none"/></g><g><rect class="background" style="stroke: none"/></g><g><rect class="background" style="stroke: none"/></g><g><rect class="background" style="stroke: none"/></g><g><rect class="background" style="stroke: none"/></g><g><rect class="background" style="stroke: none"/></g><g><rect class="background" style="stroke: none"/></g><g><rect class="background" style="stroke: none"/></g><g><rect class="background" style="stroke: none"/></g><g><rect class="background" style="stroke: none"/></g><g><rect class="background" style="stroke: none"/></g><g class="edgeLabel"><g class="label" data-id="L_U_CTX_0" transform="translate(0, 0)"><text y="-10.1"><tspan class="text-outer-tspan" x="0" y="-0.1em" dy="1.1em"/></text></g></g><g class="edgeLabel"><g class="label" data-id="L_P_CTX_0" transform="translate(0, 0)"><text y="-10.1"><tspan class="text-outer-tspan" x="0" y="-0.1em" dy="1.1em"/></text></g></g><g class="edgeLabel"><g class="label" data-id="L_C_CTX_0" transform="translate(0, 0)"><text y="-10.1"><tspan class="text-outer-tspan" x="0" y="-0.1em" dy="1.1em"/></text></g></g><g class="edgeLabel"><g class="label" data-id="L_CTX_CAD_0" transform="translate(0, 0)"><text y="-10.1"><tspan class="text-outer-tspan" x="0" y="-0.1em" dy="1.1em"/></text></g></g><g class="edgeLabel"><g class="label" data-id="L_CAD_RT_0" transform="translate(0, 0)"><text y="-10.1"><tspan class="text-outer-tspan" x="0" y="-0.1em" dy="1.1em"/></text></g></g><g class="edgeLabel"><g class="label" data-id="L_RT_DF_0" transform="translate(0, 0)"><text y="-10.1"><tspan class="text-outer-tspan" x="0" y="-0.1em" dy="1.1em"/></text></g></g><g class="edgeLabel"><g class="label" data-id="L_DF_MD_0" transform="translate(0, 0)"><text y="-10.1"><tspan class="text-outer-tspan" x="0" y="-0.1em" dy="1.1em"/></text></g></g><g class="edgeLabel"><g class="label" data-id="L_MD_SLOTS_0" transform="translate(0, 0)"><text y="-10.1"><tspan class="text-outer-tspan" x="0" y="-0.1em" dy="1.1em"/></text></g></g><g class="edgeLabel"><g class="label" data-id="L_SLOTS_SCH_0" transform="translate(0, 0)"><text y="-10.1"><tspan class="text-outer-tspan" x="0" y="-0.1em" dy="1.1em"/></text></g></g><g class="edgeLabel"><g class="label" data-id="L_SCH_PLAN_0" transform="translate(0, 0)"><text y="-10.1"><tspan class="text-outer-tspan" x="0" y="-0.1em" dy="1.1em"/></text></g></g><g class="edgeLabel"><g class="label" data-id="L_PLAN_UPLAN_0" transform="translate(0, 0)"><text y="-10.1"><tspan class="text-outer-tspan" x="0" y="-0.1em" dy="1.1em"/></text></g></g><g class="edgeLabel"><g class="label" data-id="L_PLAN_URATIONALE_0" transform="translate(0, 0)"><text y="-10.1"><tspan class="text-outer-tspan" x="0" y="-0.1em" dy="1.1em"/></text></g></g><g class="edgeLabel"><g class="label" data-id="L_PLAN_UNEXT_0" transform="translate(0, 0)"><text y="-10.1"><tspan class="text-outer-tspan" x="0" y="-0.1em" dy="1.1em"/></text></g></g><g class="edgeLabel"><g class="label" data-id="L_PLAN_EV_0" transform="translate(0, 0)"><text y="-10.1"><tspan class="text-outer-tspan" x="0" y="-0.1em" dy="1.1em"/></text></g></g><g class="edgeLabel"><g class="label" data-id="L_EXE_WL_0" transform="translate(0, 0)"><text y="-10.1"><tspan class="text-outer-tspan" x="0" y="-0.1em" dy="1.1em"/></text></g></g><g class="edgeLabel"><g class="label" data-id="L_LEARN_PAT_0" transform="translate(0, 0)"><text y="-10.1"><tspan class="text-outer-tspan" x="0" y="-0.1em" dy="1.1em"/></text></g></g><g class="edgeLabel"><g class="label" data-id="L_LEARN_CALI_0" transform="translate(0, 0)"><text y="-10.1"><tspan class="text-outer-tspan" x="0" y="-0.1em" dy="1.1em"/></text></g></g><g class="edgeLabel"><g class="label" data-id="L_EXE_EV_0" transform="translate(0, 0)"><text y="-10.1"><tspan class="text-outer-tspan" x="0" y="-0.1em" dy="1.1em"/></text></g></g><g class="edgeLabel"><g class="label" data-id="L_LEARN_EV_0" transform="translate(0, 0)"><text y="-10.1"><tspan class="text-outer-tspan" x="0" y="-0.1em" dy="1.1em"/></text></g></g><g class="edgeLabel"><g class="label" data-id="L_UPLAN_EXE_0" transform="translate(0, 0)"><text y="-10.1"><tspan class="text-outer-tspan" x="0" y="-0.1em" dy="1.1em"/></text></g></g><g class="edgeLabel"><g class="label" data-id="L_UNEXT_EXE_0" transform="translate(0, 0)"><text y="-10.1"><tspan class="text-outer-tspan" x="0" y="-0.1em" dy="1.1em"/></text></g></g><g class="edgeLabel"><g class="label" data-id="L_EXE_LEARN_0" transform="translate(0, 0)"><text y="-10.1"><tspan class="text-outer-tspan" x="0" y="-0.1em" dy="1.1em"/></text></g></g></g><g class="nodes"><g class="node default" id="flowchart-U-0" transform="translate(396.97265625, 72)"><rect class="basic label-container" style="" x="-116.890625" y="-39" width="233.78125" height="78"/><g class="label" style="" transform="translate(-86.890625, -24)"><rect/><foreignObject width="173.78125" height="48"><div xmlns="http://www.w3.org/1999/xhtml" style="display: table-cell; white-space: nowrap; line-height: 1.5; max-width: 200px; text-align: center;"><span class="nodeLabel"><p>User self-report<br />energy_now, constraints</p></span></div></foreignObject></g></g><g class="node default" id="flowchart-P-1" transform="translate(680.09765625, 72)"><rect class="basic label-container" style="" x="-116.234375" y="-39" width="232.46875" height="78"/><g class="label" style="" transform="translate(-86.234375, -24)"><rect/><foreignObject width="172.46875" height="48"><div xmlns="http://www.w3.org/1999/xhtml" style="display: table-cell; white-space: nowrap; line-height: 1.5; max-width: 200px; text-align: center;"><span class="nodeLabel"><p>Preferences<br />working blocks, budgets</p></span></div></foreignObject></g></g><g class="node default" id="flowchart-C-2" transform="translate(960.07421875, 72)"><rect class="basic label-container" style="" x="-113.7421875" y="-27" width="227.484375" height="54"/><g class="label" style="" transform="translate(-83.7421875, -12)"><rect/><foreignObject width="167.484375" height="24"><div xmlns="http://www.w3.org/1999/xhtml" style="display: table-cell; white-space: nowrap; line-height: 1.5; max-width: 200px; text-align: center;"><span class="nodeLabel"><p>Calendar / integrations</p></span></div></foreignObject></g></g><g class="node default" id="flowchart-CTX-3" transform="translate(538.53515625, 238)"><rect class="basic label-container" style="" x="-88.40625" y="-27" width="176.8125" height="54"/><g class="label" style="" transform="translate(-58.40625, -12)"><rect/><foreignObject width="116.8125" height="24"><div xmlns="http://www.w3.org/1999/xhtml" style="display: table-cell; white-space: nowrap; line-height: 1.5; max-width: 200px; text-align: center;"><span class="nodeLabel"><p>BUILD_CONTEXT</p></span></div></foreignObject></g></g><g class="node default" id="flowchart-CAD-4" transform="translate(538.53515625, 354)"><rect class="basic label-container" style="" x="-130.7890625" y="-39" width="261.578125" height="78"/><g class="label" style="" transform="translate(-100.7890625, -24)"><rect/><foreignObject width="201.578125" height="48"><div xmlns="http://www.w3.org/1999/xhtml" style="display: table; white-space: break-spaces; line-height: 1.5; max-width: 200px; text-align: center; width: 200px;"><span class="nodeLabel"><p>COLLECT_CANDIDATE_TASKS<br />join specs + load tags</p></span></div></foreignObject></g></g><g class="node default" id="flowchart-RT-5" transform="translate(538.53515625, 494)"><rect class="basic label-container" style="" x="-132.359375" y="-51" width="264.71875" height="102"/><g class="label" style="" transform="translate(-102.359375, -36)"><rect/><foreignObject width="204.71875" height="72"><div xmlns="http://www.w3.org/1999/xhtml" style="display: table; white-space: break-spaces; line-height: 1.5; max-width: 200px; text-align: center; width: 200px;"><span class="nodeLabel"><p>RESOLVE_TAGS_AND_FILTERS<br />normalize tag refs<br />prepare tag_filter eval</p></span></div></foreignObject></g></g><g class="node default" id="flowchart-DF-6" transform="translate(538.53515625, 670)"><rect class="basic label-container" style="" x="-107.6484375" y="-75" width="215.296875" height="150"/><g class="label" style="" transform="translate(-77.6484375, -60)"><rect/><foreignObject width="155.296875" height="120"><div xmlns="http://www.w3.org/1999/xhtml" style="display: table-cell; white-space: nowrap; line-height: 1.5; max-width: 200px; text-align: center;"><span class="nodeLabel"><p>DERIVE_FEATURES<br />urgency<br />remaining_minutes<br />activation_cost<br />is_potential_recovery</p></span></div></foreignObject></g></g><g class="node default" id="flowchart-MD-7" transform="translate(538.53515625, 834)"><rect class="basic label-container" style="" x="-97.7890625" y="-39" width="195.578125" height="78"/><g class="label" style="" transform="translate(-67.7890625, -24)"><rect/><foreignObject width="135.578125" height="48"><div xmlns="http://www.w3.org/1999/xhtml" style="display: table-cell; white-space: nowrap; line-height: 1.5; max-width: 200px; text-align: center;"><span class="nodeLabel"><p>SELECT_MUST_DOS<br />hard constraints</p></span></div></foreignObject></g></g><g class="node default" id="flowchart-SLOTS-8" transform="translate(538.53515625, 974)"><rect class="basic label-container" style="" x="-76.875" y="-51" width="153.75" height="102"/><g class="label" style="" transform="translate(-46.875, -36)"><rect/><foreignObject width="93.75" height="72"><div xmlns="http://www.w3.org/1999/xhtml" style="display: table-cell; white-space: nowrap; line-height: 1.5; max-width: 200px; text-align: center;"><span class="nodeLabel"><p>BUILD_SLOTS<br />availability<br />buffers</p></span></div></foreignObject></g></g><g class="node default" id="flowchart-SCH-9" transform="translate(538.53515625, 1150)"><rect class="basic label-container" style="" x="-109.7109375" y="-75" width="219.421875" height="150"/><g class="label" style="" transform="translate(-79.7109375, -60)"><rect/><foreignObject width="159.421875" height="120"><div xmlns="http://www.w3.org/1999/xhtml" style="display: table-cell; white-space: nowrap; line-height: 1.5; max-width: 200px; text-align: center;"><span class="nodeLabel"><p>SCHEDULE<br />IS_COMPATIBLE checks<br />budgets<br />dread threshold<br />recovery insertion</p></span></div></foreignObject></g></g><g class="node default" id="flowchart-PLAN-10" transform="translate(538.53515625, 1314)"><rect class="basic label-container" style="" x="-164.5" y="-39" width="329" height="78"/><g class="label" style="" transform="translate(-134.5, -24)"><rect/><foreignObject width="269" height="48"><div xmlns="http://www.w3.org/1999/xhtml" style="display: table; white-space: break-spaces; line-height: 1.5; max-width: 200px; text-align: center; width: 200px;"><span class="nodeLabel"><p>GENERATE_PLAN_AND_EXPLANATIONS<br />Markdown + rationale</p></span></div></foreignObject></g></g><g class="node default" id="flowchart-UPLAN-11" transform="translate(383.28515625, 1480)"><rect class="basic label-container" style="" x="-109.8828125" y="-27" width="219.765625" height="54"/><g class="label" style="" transform="translate(-79.8828125, -12)"><rect/><foreignObject width="159.765625" height="24"><div xmlns="http://www.w3.org/1999/xhtml" style="display: table-cell; white-space: nowrap; line-height: 1.5; max-width: 200px; text-align: center;"><span class="nodeLabel"><p>Daily plan (Markdown)</p></span></div></foreignObject></g></g><g class="node default" id="flowchart-URATIONALE-12" transform="translate(659.78515625, 1480)"><rect class="basic label-container" style="" x="-116.6171875" y="-27" width="233.234375" height="54"/><g class="label" style="" transform="translate(-86.6171875, -12)"><rect/><foreignObject width="173.234375" height="24"><div xmlns="http://www.w3.org/1999/xhtml" style="display: table-cell; white-space: nowrap; line-height: 1.5; max-width: 200px; text-align: center;"><span class="nodeLabel"><p>Explanations / rationale</p></span></div></foreignObject></g></g><g class="node default" id="flowchart-UNEXT-13" transform="translate(926.28515625, 1480)"><rect class="basic label-container" style="" x="-99.8828125" y="-27" width="199.765625" height="54"/><g class="label" style="" transform="translate(-69.8828125, -12)"><rect/><foreignObject width="139.765625" height="24"><div xmlns="http://www.w3.org/1999/xhtml" style="display: table-cell; white-space: nowrap; line-height: 1.5; max-width: 200px; text-align: center;"><span class="nodeLabel"><p>Next action prompt</p></span></div></foreignObject></g></g><g class="node default" id="flowchart-EV-14" transform="translate(137.15625, 2000)"><rect class="basic label-container" style="" x="-94.15625" y="-39" width="188.3125" height="78"/><g class="label" style="" transform="translate(-64.15625, -24)"><rect/><foreignObject width="128.3125" height="48"><div xmlns="http://www.w3.org/1999/xhtml" style="display: table-cell; white-space: nowrap; line-height: 1.5; max-width: 200px; text-align: center;"><span class="nodeLabel"><p>Events log<br />append-only facts</p></span></div></foreignObject></g></g><g class="node default" id="flowchart-WL-15" transform="translate(512.0390625, 2000)"><rect class="basic label-container" style="" x="-108.7109375" y="-39" width="217.421875" height="78"/><g class="label" style="" transform="translate(-78.7109375, -24)"><rect/><foreignObject width="157.421875" height="48"><div xmlns="http://www.w3.org/1999/xhtml" style="display: table-cell; white-space: nowrap; line-height: 1.5; max-width: 200px; text-align: center;"><span class="nodeLabel"><p>Work logs / telemetry<br />ratings, actuals</p></span></div></foreignObject></g></g><g class="node default" id="flowchart-CALI-16" transform="translate(766.3125, 2000)"><rect class="basic label-container" style="" x="-95.5625" y="-39" width="191.125" height="78"/><g class="label" style="" transform="translate(-65.5625, -24)"><rect/><foreignObject width="131.125" height="48"><div xmlns="http://www.w3.org/1999/xhtml" style="display: table-cell; white-space: nowrap; line-height: 1.5; max-width: 200px; text-align: center;"><span class="nodeLabel"><p>Calibration data<br />estimate accuracy</p></span></div></foreignObject></g></g><g class="node default" id="flowchart-PAT-17" transform="translate(1041.5625, 2000)"><rect class="basic label-container" style="" x="-129.6875" y="-39" width="259.375" height="78"/><g class="label" style="" transform="translate(-99.6875, -24)"><rect/><foreignObject width="199.375" height="48"><div xmlns="http://www.w3.org/1999/xhtml" style="display: table-cell; white-space: nowrap; line-height: 1.5; max-width: 200px; text-align: center;"><span class="nodeLabel"><p>Learned patterns<br />recovery effects, activation</p></span></div></foreignObject></g></g><g class="node default" id="flowchart-EXE-18" transform="translate(620.9765625, 1646)"><rect class="basic label-container" style="" x="-108.2265625" y="-39" width="216.453125" height="78"/><g class="label" style="" transform="translate(-78.2265625, -24)"><rect/><foreignObject width="156.453125" height="48"><div xmlns="http://www.w3.org/1999/xhtml" style="display: table-cell; white-space: nowrap; line-height: 1.5; max-width: 200px; text-align: center;"><span class="nodeLabel"><p>NEXT_ACTION<br />execute / next action</p></span></div></foreignObject></g></g><g class="node default" id="flowchart-LEARN-19" transform="translate(781.921875, 1798)"><rect class="basic label-container" style="" x="-113.7734375" y="-63" width="227.546875" height="126"/><g class="label" style="" transform="translate(-83.7734375, -48)"><rect/><foreignObject width="167.546875" height="96"><div xmlns="http://www.w3.org/1999/xhtml" style="display: table-cell; white-space: nowrap; line-height: 1.5; max-width: 200px; text-align: center;"><span class="nodeLabel"><p>LEARN_AND_CALIBRATE<br />patterns<br />estimate accuracy<br />recovery effects</p></span></div></foreignObject></g></g></g></g></g></svg>